<svg xmlns="http://www.w3.org/2000/svg" viewBox="0 0 1024 1024" role="img" aria-label="Pusula compass">
  <defs>
    <linearGradient id="bg" x1="160" y1="96" x2="864" y2="928" gradientUnits="userSpaceOnUse">
      <stop stop-color="#1b3348"/>
      <stop offset="1" stop-color="#0b141f"/>
    </linearGradient>
    <filter id="shadow" x="-30%" y="-30%" width="160%" height="160%">
      <feDropShadow dx="0" dy="28" stdDeviation="34" flood-color="#050b11" flood-opacity=".5"/>
    </filter>
  </defs>
  <rect width="1024" height="1024" rx="224" fill="url(#bg)"/>
  <circle cx="512" cy="512" r="338" fill="#111f2b" stroke="#6ea9bf" stroke-width="34" filter="url(#shadow)"/>
  <circle cx="512" cy="512" r="268" fill="none" stroke="#315468" stroke-width="18"/>
  <path d="M512 192 566 346 512 326 458 346Z" fill="#d9b45f"/>
  <path d="M512 832 458 678 512 698 566 678Z" fill="#4e7488"/>
  <path d="M192 512 346 458 326 512 346 566Z" fill="#4e7488"/>
  <path d="M832 512 678 566 698 512 678 458Z" fill="#4e7488"/>
  <g transform="rotate(35 512 512)">
    <path d="M512 246 610 522 512 488 414 522Z" fill="#d9b45f"/>
    <path d="M512 778 414 502 512 536 610 502Z" fill="#5bb6cf"/>
  </g>
  <circle cx="512" cy="512" r="50" fill="#f0d995" stroke="#0f1a24" stroke-width="20"/>
</svg>
